<?xml version="1.0" encoding="UTF-8"?>
<svg id="_レイヤー_1" data-name="レイヤー 1" xmlns="http://www.w3.org/2000/svg" viewBox="0 0 409.19255 123.91925">
  <defs>
    <style>
      .cls-1 {
        fill: #fa9da5;
      }

      .cls-2 {
        fill: #24a53d;
      }
    </style>
  </defs>
  <g>
    <path d="M172.25477,50.88529h-8.09101v22.79812h4.89338v-7.47422h3.19763c4.22505,0,7.66229-3.43725,7.66229-7.66195s-3.43725-7.66195-7.66229-7.66195ZM172.25477,61.31581h-3.19763v-5.53714h3.19763c1.52645,0,2.76891,1.24212,2.76891,2.76857s-1.24246,2.76857-2.76891,2.76857Z"/>
    <path d="M293.40025,50.88529h-8.09033v22.79812h4.89338v-7.47422h3.19695c4.22505,0,7.66229-3.43725,7.66229-7.66195s-3.43725-7.66195-7.66229-7.66195ZM293.40025,61.31581h-3.19695v-5.53714h3.19695c1.52645,0,2.76891,1.24212,2.76891,2.76857s-1.24246,2.76857-2.76891,2.76857Z"/>
    <polygon points="196.69751 57.28921 192.24531 65.87217 187.79276 57.28921 182.28054 57.28921 189.48937 71.18518 184.15976 81.45946 189.67181 81.45946 202.20974 57.28921 202.16707 57.28921 196.69751 57.28921"/>
    <path d="M215.68367,68.73337c-3.79452,0-6.86882-3.14264-6.75684-6.96188.10624-3.62351,3.20294-6.59506,6.82781-6.55735,1.90057.01977,3.61062.83277,4.82806,2.11742.04053.04277.11015.02023.11682-.03831l.62727-5.50764c-2.15001-1.1957-4.71126-1.73743-7.41851-1.33208-5.16253.77298-9.24457,5.0354-9.80742,10.22505-.75953,7.00317,4.73077,12.94817,11.58281,12.94817,2.06201,0,3.99738-.5437,5.67948-1.48733l-.66287-5.48783c-.00702-.05815-.07589-.08017-.11617-.03764-1.23251,1.30155-2.9706,2.11942-4.90044,2.11942Z"/>
    <path d="M232.80778,57.26348c-5.06268,0-8.59892,3.38093-8.59892,8.2214,0,4.84082,3.53623,8.22174,8.59892,8.22174s8.59823-3.38093,8.59823-8.22174c0-4.84048-3.53555-8.2214-8.59823-8.2214ZM232.80744,69.34734c-2.13227,0-3.8611-1.72864-3.8611-3.86101s1.72883-3.86101,3.8611-3.86101,3.8611,1.72864,3.8611,3.86101-1.72883,3.86101-3.8611,3.86101Z"/>
    <path d="M253.15819,57.28921c-1.05677,0-2.35163.1571-3.60928.70836v-.70836h-4.89338v16.39416h4.89338v-8.70514c0-2.32889,1.301-3.49476,2.90613-3.49476,1.54522,0,2.90613,1.11582,2.90613,3.49476v8.70523h4.89338v-9.29823c0-3.91273-3.18329-7.09602-7.09636-7.09602Z"/>
    <path d="M276.64956,65.82724c0,1.60257-1.3039,2.90613-2.90613,2.90613-1.13067,0-2.10211-.65566-2.5822-1.60099l-3.75844,3.2199c1.4162,1.97842,3.72738,3.27447,6.34064,3.27447,4.30082,0,7.79951-3.49869,7.79951-7.79951v-14.78925h-4.89338v14.78925Z"/>
    <g>
      <path d="M387.42814,55.1986v-4.86854h-13.25554l-2.22033,12.49177c-.00903.0508.03636.09471.08642.0822.47827-.11948,2.53089-.57787,5.2371-.39854,2.59024.17165,4.88239,1.83148,4.88239,3.756,0,1.92487-2.19315,3.55088-4.78908,3.55088-2.54889,0-4.8446-.92087-6.33104-1.84706l-.8991,5.05893c2.06241.97564,4.57037,1.65667,7.23014,1.65667,5.32497,0,9.65762-3.77706,9.65762-8.41943,0-4.60875-4.27084-8.36475-9.54283-8.41841l.52299-2.64449h9.42126Z"/>
      <path d="M339.83542,50.16705c-4.36593,0-9.03139,3.11212-9.03139,11.8467s4.66546,11.8467,9.03139,11.8467,9.03139-3.11212,9.03139-11.8467-4.66546-11.8467-9.03139-11.8467ZM339.83542,68.9919c-3.6222,0-4.16285-4.37204-4.16285-6.97815s.54065-6.97815,4.16285-6.97815,4.16285,4.37204,4.16285,6.97815-.54065,6.97815-4.16285,6.97815Z"/>
      <path d="M320.68956,50.22106c-4.85633-.45643-8.95572,3.36815-8.95572,8.13212h4.86854c0-2.13573,2.03911-3.80424,4.27325-3.16089.81597.23497,1.52573.80104,1.92235,1.55185.68462,1.296.47036,2.76808-.40062,3.77095l-9.63345,10.15213c-.77879.82072-1.21295,1.909-1.21295,3.04041v.00038h16.51895v-4.85262h-6.87475l4.76598-5.02272.13921-.15296c1.26726-1.39242,1.96955-3.20747,1.96955-5.09022h0c0-4.25035-3.14866-7.9707-7.38036-8.36842Z"/>
      <path d="M360.04391,50.22109c-4.85647-.45663-8.95603,3.36802-8.95603,8.13209h4.86854c0-2.13133,2.03072-3.79737,4.25945-3.16481.81797.23216,1.53061.79669,1.93092,1.54684.69175,1.29629.47876,2.77277-.39471,3.78022l-9.63374,10.15212c-.77882.82073-1.213,1.90903-1.213,3.04046h0s16.51912,0,16.51912,0v-4.85262h-6.87458l4.76598-5.02272.13643-.14974c1.26887-1.39266,1.97216-3.20882,1.97216-5.09284h0c0-4.25053-3.14869-7.9711-7.38055-8.36899Z"/>
    </g>
  </g>
  <g>
    <path class="cls-2" d="M123.96,42.24621v47.3164h-1.89825v-18.51778c0-6.0952-4.94113-11.03633-11.03633-11.03633h-2.31286c-6.0952,0-11.03633,4.94113-11.03633,11.03633v14.99664h-1.93263v-18.45834c0-6.0952-4.94113-11.03633-11.03633-11.03633h-12.30887c-6.0952,0-11.03633,4.94113-11.03633,11.03633v20.21891h-1.89878v-5.98833c0-6.0952-4.94113-11.03633-11.03633-11.03633h-2.31345c-6.0952,0-11.03633,4.94113-11.03633,11.03633v1.47984h-2.27644c-6.0952,0-11.03633,4.94113-11.03633,11.03633v.00002c0,6.0952,4.94113,11.03633,11.03633,11.03633h2.48381c6.0952,0,11.03633-4.94113,11.03633-11.03633v-4.76729h1.89878v9.9023c0,6.0952,4.94113,11.03633,11.03633,11.03633h2.31345c6.0952,0,11.03633-4.94113,11.03633-11.03633v-27.05196h1.89819v14.63209c0,6.0952,4.94113,11.03633,11.03633,11.03633h12.34325c6.0952,0,11.03633-4.94113,11.03633-11.03633v-16.28813h1.89825v21.28259c0,6.0952,4.94113,11.03633,11.03633,11.03633h2.31286c6.0952,0,11.03633-4.94113,11.03633-11.03633v-38.75696c0-6.0952-4.94113-11.03633-11.03633-11.03633h-.20731Z"/>
    <path class="cls-1" d="M124.43119,18.63661h-12.86938c-5.94946,0-10.77245,4.82299-10.77245,10.77245v10.77247h-1.89872v-15.99106c0-5.94946-4.82299-10.77245-10.77245-10.77245h-2.8418c-5.94946,0-10.77245,4.82299-10.77245,10.77245v19.48196h-1.89819v-6.70655c0-5.94946-4.82299-10.77245-10.77245-10.77245h-2.84122c-5.94946,0-10.77245,4.82299-10.77245,10.77245v16.33001h-1.89878v-21.85892c0-5.94946-4.82299-10.77245-10.77245-10.77245h-2.84122c-5.94946,0-10.77245,4.82299-10.77245,10.77245v39.40371c0,5.94946,4.82299,10.77245,10.77245,10.77245h.47125v-44.63582h1.89872v21.04181c0,5.94946,4.82299,10.77245,10.77245,10.77245h2.84122c5.94946,0,10.77245-4.82299,10.77245-10.77245v-21.04181h1.89878v6.88089c0,5.94946,4.82299,10.77245,10.77245,10.77245h2.8418c5.94946,0,10.77245-4.82299,10.77245-10.77245v-19.6771h1.89819v23.1859c0,5.94946,4.82299,10.77245,10.77245,10.77245h12.84115c5.94946,0,10.77245-4.82299,10.77245-10.77245v-7.18546h2.3982c5.94946,0,10.77245-4.82299,10.77245-10.77245v-.00002c0-5.94946-4.82299-10.77245-10.77245-10.77245Z"/>
  </g>
</svg>