<?xml version="1.0" encoding="UTF-8"?>
<svg id="_レイヤー_1" data-name="レイヤー_1" xmlns="http://www.w3.org/2000/svg" xmlns:xlink="http://www.w3.org/1999/xlink" version="1.1" viewBox="0 0 433.6 197.9">
  <!-- Generator: Adobe Illustrator 29.1.0, SVG Export Plug-In . SVG Version: 2.1.0 Build 142)  -->
  <defs>
    <style>
      .st0 {
        fill: #211d1e;
      }

      .st1 {
        fill: url(#_名称未設定グラデーション_9);
      }

      .st2 {
        fill: url(#_名称未設定グラデーション_6);
      }

      .st3 {
        fill: url(#_名称未設定グラデーション_5);
      }

      .st4 {
        fill: url(#_名称未設定グラデーション_4);
      }

      .st5 {
        fill: url(#_名称未設定グラデーション_3);
      }

      .st6 {
        fill: url(#_名称未設定グラデーション_2);
      }

      .st7 {
        fill: url(#_名称未設定グラデーション_8);
      }

      .st8 {
        fill: url(#_名称未設定グラデーション_7);
      }

      .st9 {
        fill: url(#_名称未設定グラデーション);
      }

      .st10 {
        fill: url(#_名称未設定グラデーション_14);
      }

      .st11 {
        fill: url(#_名称未設定グラデーション_12);
      }

      .st12 {
        fill: url(#_名称未設定グラデーション_13);
      }

      .st13 {
        fill: url(#_名称未設定グラデーション_11);
      }

      .st14 {
        fill: url(#_名称未設定グラデーション_16);
      }

      .st15 {
        fill: url(#_名称未設定グラデーション_15);
      }

      .st16 {
        fill: url(#_名称未設定グラデーション_10);
      }
    </style>
    <linearGradient id="_名称未設定グラデーション" data-name="名称未設定グラデーション" x1="53.3" y1="-8.7" x2="120.1" y2="176.1" gradientTransform="translate(0 200) scale(1 -1)" gradientUnits="userSpaceOnUse">
      <stop offset="0" stop-color="#e45b25"/>
      <stop offset=".6" stop-color="#871c21"/>
      <stop offset="1" stop-color="#140306"/>
    </linearGradient>
    <linearGradient id="_名称未設定グラデーション_2" data-name="名称未設定グラデーション 2" x1="26.8" y1=".8" x2="93.7" y2="185.8" gradientTransform="translate(0 200) scale(1 -1)" gradientUnits="userSpaceOnUse">
      <stop offset="0" stop-color="#e45b25"/>
      <stop offset=".6" stop-color="#871c21"/>
      <stop offset="1" stop-color="#140306"/>
    </linearGradient>
    <linearGradient id="_名称未設定グラデーション_3" data-name="名称未設定グラデーション 3" x1="41.7" y1="-4.5" x2="108.5" y2="180.4" gradientTransform="translate(0 200) scale(1 -1)" gradientUnits="userSpaceOnUse">
      <stop offset="0" stop-color="#e45b25"/>
      <stop offset=".6" stop-color="#871c21"/>
      <stop offset="1" stop-color="#140306"/>
    </linearGradient>
    <linearGradient id="_名称未設定グラデーション_4" data-name="名称未設定グラデーション 4" x1="29.2" y1="-32.1" x2="118.2" y2="213.8" gradientTransform="translate(0 200) scale(1 -1)" gradientUnits="userSpaceOnUse">
      <stop offset="0" stop-color="#e45b25"/>
      <stop offset=".6" stop-color="#871c21"/>
      <stop offset="1" stop-color="#140306"/>
    </linearGradient>
    <linearGradient id="_名称未設定グラデーション_5" data-name="名称未設定グラデーション 5" x1="-4.6" y1="12.3" x2="62.1" y2="197" gradientTransform="translate(0 200) scale(1 -1)" gradientUnits="userSpaceOnUse">
      <stop offset="0" stop-color="#e45b25"/>
      <stop offset=".6" stop-color="#871c21"/>
      <stop offset="1" stop-color="#140306"/>
    </linearGradient>
    <linearGradient id="_名称未設定グラデーション_6" data-name="名称未設定グラデーション 6" x1=".9" y1="10.3" x2="67.8" y2="195.1" gradientTransform="translate(0 200) scale(1 -1)" gradientUnits="userSpaceOnUse">
      <stop offset="0" stop-color="#e45b25"/>
      <stop offset=".6" stop-color="#871c21"/>
      <stop offset="1" stop-color="#140306"/>
    </linearGradient>
    <linearGradient id="_名称未設定グラデーション_7" data-name="名称未設定グラデーション 7" x1="-3.6" y1="11.9" x2="63.3" y2="196.8" gradientTransform="translate(0 200) scale(1 -1)" gradientUnits="userSpaceOnUse">
      <stop offset="0" stop-color="#e45b25"/>
      <stop offset=".6" stop-color="#871c21"/>
      <stop offset="1" stop-color="#140306"/>
    </linearGradient>
    <linearGradient id="_名称未設定グラデーション_8" data-name="名称未設定グラデーション 8" x1="2.3" y1="9.8" x2="69.1" y2="194.5" gradientTransform="translate(0 200) scale(1 -1)" gradientUnits="userSpaceOnUse">
      <stop offset="0" stop-color="#e45b25"/>
      <stop offset=".6" stop-color="#871c21"/>
      <stop offset="1" stop-color="#140306"/>
    </linearGradient>
    <linearGradient id="_名称未設定グラデーション_9" data-name="名称未設定グラデーション 9" x1="86.6" y1="-72.5" x2="186" y2="202.4" gradientTransform="translate(0 200) scale(1 -1)" gradientUnits="userSpaceOnUse">
      <stop offset="0" stop-color="#e45b25"/>
      <stop offset=".6" stop-color="#871c21"/>
      <stop offset="1" stop-color="#140306"/>
    </linearGradient>
    <linearGradient id="_名称未設定グラデーション_10" data-name="名称未設定グラデーション 10" x1="147.6" y1="96.3" x2="147.6" y2="96.3" gradientTransform="translate(0 200) scale(1 -1)" gradientUnits="userSpaceOnUse">
      <stop offset="0" stop-color="#e45b25"/>
      <stop offset=".6" stop-color="#871c21"/>
      <stop offset="1" stop-color="#140306"/>
    </linearGradient>
    <linearGradient id="_名称未設定グラデーション_11" data-name="名称未設定グラデーション 11" x1="15.5" y1="11.6" x2="78.5" y2="185.7" gradientTransform="translate(0 200) scale(1 -1)" gradientUnits="userSpaceOnUse">
      <stop offset="0" stop-color="#e45b25"/>
      <stop offset=".6" stop-color="#871c21"/>
      <stop offset="1" stop-color="#140306"/>
    </linearGradient>
    <linearGradient id="_名称未設定グラデーション_12" data-name="名称未設定グラデーション 12" x1="-6.4" y1="13" x2="60.4" y2="197.6" gradientTransform="translate(0 200) scale(1 -1)" gradientUnits="userSpaceOnUse">
      <stop offset="0" stop-color="#e45b25"/>
      <stop offset=".6" stop-color="#871c21"/>
      <stop offset="1" stop-color="#140306"/>
    </linearGradient>
    <linearGradient id="_名称未設定グラデーション_13" data-name="名称未設定グラデーション 13" x1="-9.3" y1="13.7" x2="57.7" y2="198.7" gradientTransform="translate(0 200) scale(1 -1)" gradientUnits="userSpaceOnUse">
      <stop offset="0" stop-color="#e45b25"/>
      <stop offset=".6" stop-color="#871c21"/>
      <stop offset="1" stop-color="#140306"/>
    </linearGradient>
    <linearGradient id="_名称未設定グラデーション_14" data-name="名称未設定グラデーション 14" x1="-17" y1="17.2" x2="49.6" y2="201.5" gradientTransform="translate(0 200) scale(1 -1)" gradientUnits="userSpaceOnUse">
      <stop offset="0" stop-color="#e45b25"/>
      <stop offset=".6" stop-color="#871c21"/>
      <stop offset="1" stop-color="#140306"/>
    </linearGradient>
    <linearGradient id="_名称未設定グラデーション_15" data-name="名称未設定グラデーション 15" x1="-20.1" y1="18.1" x2="46.6" y2="202.6" gradientTransform="translate(0 200) scale(1 -1)" gradientUnits="userSpaceOnUse">
      <stop offset="0" stop-color="#e45b25"/>
      <stop offset=".6" stop-color="#871c21"/>
      <stop offset="1" stop-color="#140306"/>
    </linearGradient>
    <linearGradient id="_名称未設定グラデーション_16" data-name="名称未設定グラデーション 16" x1="39.5" y1="-3.5" x2="106.3" y2="181.1" gradientTransform="translate(0 200) scale(1 -1)" gradientUnits="userSpaceOnUse">
      <stop offset="0" stop-color="#e45b25"/>
      <stop offset=".6" stop-color="#871c21"/>
      <stop offset="1" stop-color="#140306"/>
    </linearGradient>
  </defs>
  <g id="_レイヤー_2" data-name="レイヤー_2">
    <g id="Layer_1">
      <path class="st9" d="M78.4,124.9c4.5-1.1,8.7-3,12.5-5.6-3.6,2-8.1,3.7-12.5,5.6Z"/>
      <path class="st6" d="M52.9,133.4c-2.1.8-4.1,1.6-5.5,2.2,1.8-.7,3.6-1.4,5.5-2.2Z"/>
      <path class="st5" d="M70.8,128.7h-.4c-1.5.9-2.8,1.9-4.1,3,.6-.4,3.2-2.1,4.5-3Z"/>
      <path class="st4" d="M70.5,118h.1c-.2,0-.4,0-.1,0Z"/>
      <path class="st3" d="M12.9,136.6c-.1,1.9-.2,3.9-.2,5.7.3-1.9.3-3.8.2-5.7Z"/>
      <path class="st2" d="M15,150.6c-1.1,2.5-2,5.2-2.6,7.9,1.1-2.5,2-5.2,2.6-7.9Z"/>
      <path class="st8" d="M15.3,137c.2-.6.3-1.2.5-1.9s.1-1.3.2-2c-.2,1.3-.5,2.6-.7,3.9Z"/>
      <path class="st7" d="M9.8,169.6c1.1-2.2,1.9-4.6,2.4-7.1-.8,2.2-1.7,4.6-2.4,7.1Z"/>
      <path class="st1" d="M174.8,74c.2.9.8,2,.9,3-.8-.3-1.5-.8-2-1.4,0,.3,0,.7,0,1h0c-1.9-2.5-4.2-4.7-6.9-6.4,1.1.3,2.3.5,3.4.9-16.6-21.3-60.1,13.1-46.1,35.6.4-.3,1-1.1,1.5-1.4.9,2.3,2,4.5,3.1,6.7-1.9,1.2-.2.8-.3,2.3-1-.2-1.1-.6-1.9-.9,10.5,11,35.5,9.8,45.7-.8-.3-.2-1.4.2-1.8,0,1.8-1.3,3.1-3.4,4.6-4.7-.9.4-2.3,1-3.1,1.4,2.6-1.9,4.7-4.4,6.1-7.3-3.4,1.6-6.7,3.6-9.7,5.8.7-.6,1.3-1.5,1.9-2-1.5,1.1-3,2.1-4.6,3,1.1-1.3,2.1-2.5,3.3-3.7-1.8,1.9-3.9,3.5-6.2,4.8-4,.7-7.9,1.8-11.6,3.2,2.1.4,4.1.8,6.2.9-2.5,1.5-5.3,2.3-8.2,2.3.7-.1,1.4-.3,2.1-.6-1.4,0-2.8-.3-4-1,1.4-.2,2.8-.4,4.1-.8h-1.9c-1.6-1-3.1-2.4-4.8-3.1,3.5,1.2,7.9,1.7,11.6.3-7,1-12.1-2.2-17.7-6.5,1.2,1.4,1.9,2.6,3.1,3.9-1.2-.6-2.4-1.3-3.6-1.9-1.7-1.6-2.9-3.7-3.4-5.9l2.7,1.6c-6.1-8.9,14-21.6,22-20.2,8.5,1.4-7.8,9.4-11.1,12.2,1.6-.9,3.2-1.7,4.8-2.5-2,1.2-3.8,2.8-5.8,4,.6,0,1.6-.3,2.3-.5-3.2,2.1-6.4,3.9-9.4,6,2.8-1.4,6-2.8,9.2-4h-.1c2.3-.5,4.5-.6,6.8-1.4-4.2,1.6-7.6,4.9-11,7.5,2.3-1.6,4.9-2.8,7.6-3.6-1.1.6-2.2,1.2-3.2,1.9,1.4-.6,2.9-1.2,4.4-1.9.1-.2.3-.3.5-.5.5-.1,1-.3,1.5-.4l-1.9.9c0,0-.1.2-.2.3,1.1-.4,2.2-.9,3.3-1.4,4.5-1,9-1.7,13.3-3.3-.3,0-.7,0-1,0,0-.6-.1-1.2-.1-1.7,2.8-1,5.6-1.5,8.6-1.6-.2-1.3,0-3.4-.4-4.7.4-.2,1.7.2,2-.2.2-4.2-.8-10-4.7-13.2Z"/>
      <path class="st16" d="M147.6,103.7h0Z"/>
      <path class="st13" d="M113,74.6c-3.6-2.9-8.6-3.5-13.4-2.8h.2c5.2-2.1,8.7-3.2,12.5-7.4,5.9-6.6,16.5-14.5,17.7-23.7.8-5.8,2.5-19.6-.6-24.2-3.8-5.6-14.8-9.2-21.1-7.6.3.2.6.6.8.7-.7.2-1.4.7-1.9,1.2,1.3.4,2.3,1.1,3.7,1.3-4.3-.2-10.2.8-14.4,1.6.5-.2,1.1-.5,1.6-.6-2.2.3-4.3,1.1-6.5,1.4,2-1.2,4.2-2.2,6.6-2.8-2.5.9-5.2,1.2-7.6,2.1,2.3-1.6,5-2.6,7.7-3.2-4.6-.1-12.1,2.8-17.5,5.4-1.4-4.4-3.4-8.8-3.4-13.3-2.7-.4-6.5-2.8-9.1-2.7-2.9.2-7.5,3.5-11.1,4.1,3,2.9,2,7.9.5,11.7-.9.1-1.8,0-2.7.2.2,3.8-.4,7.6-3,10.5,0-1.2.2-2.3.5-3.5-1,2.2-2.1,4.3-3.3,6.4h0c.3-1.4.3-3.5.5-4.5-1.7,1.5-3,3.5-3.6,5.7-3.8,1.7-7.7,3.9-11.4,4.7l.6-.4q0,0,0,0h.1c0,0,0,0,0,0,1.9-1.5,3.9-2.9,6-4,.9-.7,1.9-1.4,3-1.9-6.8,2.5-13.5,6.9-20.3,9.3,1.1-.4,2.4-.7,3.5-1.1-3.4,1.5-7.1,3-10.3,4.8.8-.7,1.6-1.4,2.5-2-6,3.9-12.5,7.5-17.9,11.9,8.8-3.5,17.5-9.5,26.9-11,.2.1-.1.6-.2.6,2.3-.7,4.6-1.2,6.9-1.7-5.1,1.9-11,4.4-15.9,6.6-4.4,2-7.8,5.5-12.2,7.3,0,0,.8,0,.8,0-1.6,1.1-3.1,2.4-4.6,3.7,4.1-2.9,11.4-7.1,16.6-7.1-.1.2-.8.8-.9,1,5.9-1.9,11.5-5.8,17.6-7.5-.5,0-1,.2-1.5.3,2.6-1.5,5.5-3.1,8.6-4.7-.4,2.6-1.1,5.1-2.1,7.5-4.4,9.4-4.6,19.3-8.4,28.8,2.2-3.8,3.2-8.1,5.2-12-.9,2.1-1.6,4.2-2.3,6.4,3.3-5.2,6.5-10.6,9.9-15.6-4.5,7.5-5.5,15.7-7.7,23.3-1.3,2.7-2.2,5.6-3.6,8.2,1.3-3.6,2.2-7.5,3.6-11.1-.2.3-.6.7-.8.9.4-1.1.7-2.3,1-3.5-2.8,6-4.2,12.3-6.3,18.3-.5.7-1.1,1.4-1.7,2,.1-1.5.5-2.9.9-4.4h0c.2-2.1.6-4.2,1.2-6.2-1.7,5.9-4,11.9-6.2,17.7-.1-.2-.2-.5-.1-.7-1.9,3.2-4,6.4-6.1,9.5.9-.9,1.9-1.6,2.9-2.3-.5,2.5-1.2,4.9-2.1,7.3,2-4.1,3.4-8.5,5.8-12.5-4.5,9.8-5.5,21.6-8.2,32.1-.2,3.1-1.2,6.2-2.9,8.8v-2c-1.1,7.6-5.4,15.1-8.3,22.1,4.7-5.3,6.7-12.9,10.8-18.9,0,1.5,0,3-.4,4.5,1.9-4.3,4.2-8.5,6.7-12.4-.6,7-2.7,11.4-4.1,19.8,0-3.5.6-7,1.6-10.4-3.2,5.7-8,15.8-7.7,23-.9,1.4-1.8,2.9-2.6,4.4,0-2.2.3-4.4,1-6.4-.7,1.4-1.5,2.9-2.3,4.3,0-1.1,0-2.1,0-3.2-1.5,3.8-3.3,7.5-5.4,11.1-.2,0-.4,0-.4-.3,0,0,0,0,0,0-.3,1-.7,1.8-1,2.8,0-.7.5-3.2.5-3-1-1.2.6-6.2,1.8-9-2.4,4.2-3.8,9-5.3,13.5.4-.2.8-1.1,1.1-1.3-.2,3.3-1.2,6.6-1.9,10,.9-3.7,2.8-7.1,5.4-9.9-.4,1.2-.7,2.9-1.1,4.2,2.1-3.8,3.8-7.7,5.2-11.8-.2,8-4.4,17.3-6.9,25.1,3.1-8.2,5.6-16.9,10.3-24.7.1.9.2,1.8,0,2.6.5-1.1,1-2.2,1.7-3.2.1.3-.1,2.2.2,2.3.5-.6.8-2,1.7-2.2.1.2-.6.9-.6,1.2,6.1-7.1,8.7-18,10.9-28.2,1.2-3.7,2.6-7.3,4.3-10.7-.8,4-.7,8.3-1.6,12.2-2.1,8.8-6.2,18.9-9.3,27.9,5.4-11.2,11.8-25,15.2-36.4.7-2.2,1.4-4.7,2.2-7.4,1.4-.3,2.9-.4,4.3-.2,1.3-.7,2.7-1.1,4-1.7-1.2,1-2.5,1.8-3.8,2.6,4.5-1.5,8.7-5.2,13.5-6.4,0,0-.6,0-.8,0,1.5-.5,3.1-1.1,4.5-1.8-1.3.5-2.5.9-3.8,1.3.2-.2.4-.4.6-.6-2.6.6-4.8,2.3-7.2,3,4.4-4.2,12.3-9.1,18-10.6-.7,1.2-1.5,2.3-2.4,3.3,2.1-2.2,4.6-3.9,7.3-5-.6.5-.9,1.1-1.5,1.7.3-.1.6-.2.8-.3.2.2.4.4.7.6-2.6,2.9-6.2,5.2-9.1,7.9,3.2-2.1,6.6-3.8,10.1-5.1-6,4.5-12.4,8.4-19.2,11.5,2.7-1,5.6-1.7,7.2-1,2.9-1.6,6-2.7,9.3-3.3,2.4-1.4,4.9-2.6,7.5-3.7-1,.2-1.9.4-2.9.6,6.7-1.7,12.7-6.4,18.6-9.9-.4.5-.8,1-1.3,1.6,1.6-1,3.3-2.1,5-2.9-.5.6-1.1,1.3-1.7,1.9,3.2-2.1,5.8-3.5,8.4-6.4,6.6-7.6,9.7-13.8,12-23.5,1.1-5,2.2-6.3-2.7-10.2ZM23.2,106.1c-.1-.1-.4,0,.1-.6,0,.2,0,.4-.1.6ZM97.2,32.3c-.2-.5-.4-.9-.7-1.3,3.2,2.1,4.3,4.5,5.1,8.7.5-1.2.9-2.4,1-3.7.2,1,.5,2.3.6,3.2.6-3.1-.9-5.4-1.9-8,3.6,2.9,4.3,10.9,2.8,15-.2,0,0-1.2,0-1.2-.2.5-.4,1-.7,1.5-.1-1.7-.4-3.3-.7-5,0,3.3-1.4,6.3-3.1,9.1.6-3.3.6-6.7-.1-9.9.5,4.9-1.2,10.7-4.6,13.4,1.5-2.3,2.2-5,2-7.7-2.7,9.7-11.8,11.8-18.7,17,.6,0,1-.3,1.6-.3-.8.5-1.8,1.2-2.6,1.7,2.5-.3,4.4-2.1,6.9-2.8-5.5,2.6-10.6,6.7-16.1,8.9,1.7-1.3,3.4-2.5,5.2-3.7-1.8.7-3.6,1.8-5.5,2.4.8-.5,1.6-1.1,2.3-1.7-3.1,1.1-6.1,2.6-9,4.3,2.7-7.8,6.3-15.3,10.7-22.3,1.8-2.8,7.4-6.1,8.7-8.8,1.5-3.2,0-4.6.5-8,.2-1.5.6-3.1.8-4.6,5.9-.5,12.3.8,15.7,4.1h0ZM86.5,16.1c-1.8.4-3.6,1-5.3,1.8,0-.3-.2-.6-.3-.9,1.8-.3,3.7-.6,5.5-.9ZM69.4,111.6c.3-.6.8-1.1,1.1-1.6-5.9,2.6-12,7-18,10-4.3,2.1-9.1,4-13.6,6.3v-.3c1-1,2.2-1.8,3.6-2.1-1.4-12.4,8.3-22.2,11.1-34.6.3,5.7-4.2,11.8-4.2,17.3,1.4-5.8,4.8-13.2,6.6-19.5,3.3-1,6.8-2.1,10-3-1.4.2-2.8.3-4.2.3,3.8-1.5,7.5-2.8,11.4-2.7-.4.1-2.3,1-3.3,1.4,4,.1,8.1-.3,12-1.2,18.5,4.2-1.5,27.7-12.6,29.8Z"/>
      <path class="st11" d="M29.4,87.6c0,.3,0,.6,0,.9.3-.2.3-.6,0-.9Z"/>
      <path class="st12" d="M51.5,18.3c.8-1.7,1.5-3.4,2-5.1-.9,1.6-1.6,3.3-2,5.1Z"/>
      <path class="st10" d="M40.4,26.3l-.8.4-1.4,1.1s1.5-1.1,2.2-1.5Z"/>
      <path class="st15" d="M33.3,30.9c1-.6,2-1.2,3-1.9-1,.6-2,1.2-3,1.9Z"/>
      <path class="st14" d="M101.5,36.9c-.2-1.8-.7-3.6-1.6-5.2.7,1.7,1.3,3.4,1.6,5.2Z"/>
      <rect class="st0" x="2.7" y="122.9" width="430.9" height="1.5"/>
      <path class="st0" d="M288.5,95.3c-3.8,13.4,2.9,24.3,15.1,24.3s25.2-10.9,29-24.3-2.9-24.3-15.1-24.3-25.2,10.9-29,24.3ZM296.5,95.3c2.6-9,11-16.3,18.7-16.3s12,7.3,9.4,16.3-11,16.3-18.7,16.3-12-7.3-9.4-16.3h0Z"/>
      <path class="st0" d="M388.6,70.8h-12c.4,1.8.6,3.6.4,5.5l-6.7,23.2c-2.4,8.4-7,12-15.2,12s-10.7-3.6-8.3-12l6.7-23.2c1-1.9,2.2-3.8,3.6-5.5h-12c.4,1.8.6,3.6.4,5.5l-6.6,23.2c-3.7,12.9,1.3,20,14,20s21.8-7.1,25.5-20l6.7-23.2c1-1.9,2.1-3.8,3.5-5.5Z"/>
      <path class="st0" d="M414.9,71.2h-20.3c.4,1.8.6,3.6.4,5.5l-10.8,37.4c-1,1.9-2.2,3.8-3.5,5.5h20.3c10.4,0,24.4-6.3,29.5-24.2s-5.3-24.2-15.7-24.2ZM403.3,111.6h-10.3c1.1-4,7.8-27,9.3-32.4h10.3c4.4,0,14.2,1.6,10,16.2s-15,16.2-19.4,16.2Z"/>
      <path class="st0" d="M233.2,71h-24.6c.4,1.8.6,3.6.4,5.4l-10.8,37.6c-1,1.9-2.2,3.8-3.6,5.5h12c-.4-1.8-.6-3.6-.4-5.5l3.5-12h14.6c7.2,0,15.1-7,17.5-15.5s-1.4-15.6-8.7-15.6ZM226.6,94h-14.6c2.1-7.4,3.6-12.6,4.3-15.1h14.6c2.8,0,4.1,3.4,2.9,7.5s-4.5,7.6-7.3,7.6h0Z"/>
      <path class="st0" d="M273.2,100.5c5.6-2.9,9.7-8,11.5-14,2.4-8.5-1.4-15.5-8.6-15.5h-24.6c.4,1.8.6,3.6.4,5.4l-10.8,37.6c-1,1.9-2.2,3.8-3.6,5.5h12c-.4-1.8-.6-3.6-.4-5.5,1-3.3,2.2-7.8,3.4-12h12.2l3.4,17.5h8.8l-3.6-19ZM269.4,94.1h-14.6c2.1-7.4,3.6-12.6,4.3-15.1h14.6c2.8,0,4.1,3.4,2.9,7.5s-4.5,7.5-7.2,7.5Z"/>
    </g>
  </g>
</svg>