<?xml version="1.0" encoding="UTF-8"?>
<svg id="_レイヤー_2" data-name="レイヤー 2" xmlns="http://www.w3.org/2000/svg" xmlns:xlink="http://www.w3.org/1999/xlink" viewBox="0 0 433.5 198.1">
  <defs>
    <style>
      .cls-1 {
        fill: url(#_名称未設定グラデーション_16-3);
      }

      .cls-2 {
        fill: url(#_名称未設定グラデーション_16-2);
      }

      .cls-3 {
        fill: url(#_名称未設定グラデーション_16-5);
      }

      .cls-4 {
        fill: url(#_名称未設定グラデーション_16-4);
      }

      .cls-5 {
        fill: url(#_名称未設定グラデーション_16-9);
      }

      .cls-6 {
        fill: url(#_名称未設定グラデーション_16-8);
      }

      .cls-7 {
        fill: url(#_名称未設定グラデーション_16-7);
      }

      .cls-8 {
        fill: url(#_名称未設定グラデーション_16-6);
      }

      .cls-9 {
        fill: #211d1e;
      }

      .cls-10 {
        fill: url(#_名称未設定グラデーション_16-10);
      }

      .cls-11 {
        fill: url(#_名称未設定グラデーション_16-11);
      }

      .cls-12 {
        fill: url(#_名称未設定グラデーション_16-12);
      }

      .cls-13 {
        fill: url(#_名称未設定グラデーション_16-13);
      }

      .cls-14 {
        fill: url(#_名称未設定グラデーション_16-14);
      }

      .cls-15 {
        fill: url(#_名称未設定グラデーション_16);
      }
    </style>
    <linearGradient id="_名称未設定グラデーション_16" data-name="名称未設定グラデーション 16" x1="53.24" y1="1928.72" x2="120.04" y2="1743.92" gradientTransform="translate(0 -1720)" gradientUnits="userSpaceOnUse">
      <stop offset="0" stop-color="#e45b25"/>
      <stop offset=".6" stop-color="#871c21"/>
      <stop offset="1" stop-color="#140306"/>
    </linearGradient>
    <linearGradient id="_名称未設定グラデーション_16-2" data-name="名称未設定グラデーション 16" x1="26.66" y1="1919.19" x2="93.56" y2="1734.19" xlink:href="#_名称未設定グラデーション_16"/>
    <linearGradient id="_名称未設定グラデーション_16-3" data-name="名称未設定グラデーション 16" x1="41.61" y1="1924.51" x2="108.41" y2="1739.61" xlink:href="#_名称未設定グラデーション_16"/>
    <linearGradient id="_名称未設定グラデーション_16-4" data-name="名称未設定グラデーション 16" x1="-4.72" y1="1907.7" x2="61.98" y2="1723" xlink:href="#_名称未設定グラデーション_16"/>
    <linearGradient id="_名称未設定グラデーション_16-5" data-name="名称未設定グラデーション 16" x1=".87" y1="1909.73" x2="67.77" y2="1724.93" xlink:href="#_名称未設定グラデーション_16"/>
    <linearGradient id="_名称未設定グラデーション_16-6" data-name="名称未設定グラデーション 16" x1="-3.65" y1="1908.12" x2="63.25" y2="1723.22" xlink:href="#_名称未設定グラデーション_16"/>
    <linearGradient id="_名称未設定グラデーション_16-7" data-name="名称未設定グラデーション 16" x1="2.25" y1="1910.22" x2="69.05" y2="1725.52" xlink:href="#_名称未設定グラデーション_16"/>
    <linearGradient id="_名称未設定グラデーション_16-8" data-name="名称未設定グラデーション 16" x1="86.38" y1="1992.46" x2="185.78" y2="1717.56" xlink:href="#_名称未設定グラデーション_16"/>
    <linearGradient id="_名称未設定グラデーション_16-9" data-name="名称未設定グラデーション 16" x1="15.59" y1="1908.47" x2="78.59" y2="1734.37" xlink:href="#_名称未設定グラデーション_16"/>
    <linearGradient id="_名称未設定グラデーション_16-10" data-name="名称未設定グラデーション 16" x1="-6.46" y1="1907.02" x2="60.34" y2="1722.42" xlink:href="#_名称未設定グラデーション_16"/>
    <linearGradient id="_名称未設定グラデーション_16-11" data-name="名称未設定グラデーション 16" x1="-9.41" y1="1906.3" x2="57.59" y2="1721.3" xlink:href="#_名称未設定グラデーション_16"/>
    <linearGradient id="_名称未設定グラデーション_16-12" data-name="名称未設定グラデーション 16" x1="-17.08" y1="1902.81" x2="49.52" y2="1718.51" xlink:href="#_名称未設定グラデーション_16"/>
    <linearGradient id="_名称未設定グラデーション_16-13" data-name="名称未設定グラデーション 16" x1="-20.23" y1="1901.89" x2="46.47" y2="1717.39" xlink:href="#_名称未設定グラデーション_16"/>
    <linearGradient id="_名称未設定グラデーション_16-14" data-name="名称未設定グラデーション 16" x1="39.38" y1="1923.49" x2="106.18" y2="1738.89" xlink:href="#_名称未設定グラデーション_16"/>
  </defs>
  <g id="_レイヤー_1-2" data-name=" レイヤー 1">
    <g id="_レイヤー_2-2" data-name=" レイヤー 2">
      <g id="Layer_1" data-name="Layer 1">
        <path class="cls-15" d="M78.3,124.9c4.5-1.1,8.7-3,12.5-5.6-3.6,2-8.1,3.7-12.5,5.6Z"/>
        <path class="cls-2" d="M52.8,133.4c-2.1.8-4.1,1.6-5.5,2.2,1.8-.7,3.6-1.4,5.5-2.2Z"/>
        <path class="cls-1" d="M70.7,128.7h-.4c-1.5.9-2.8,1.9-4.1,3,.6-.4,3.2-2.1,4.5-3Z"/>
        <path class="cls-4" d="M12.8,136.6c-.1,1.9-.2,3.9-.2,5.7.3-1.9.3-3.8.2-5.7Z"/>
        <path class="cls-3" d="M14.9,150.6c-1.1,2.5-2,5.2-2.6,7.9,1.1-2.5,2-5.2,2.6-7.9Z"/>
        <path class="cls-8" d="M15.2,137c.2-.6.3-1.2.5-1.9s.1-1.3.2-2c-.2,1.3-.5,2.6-.7,3.9Z"/>
        <path class="cls-7" d="M9.7,169.6c1.1-2.2,1.9-4.6,2.4-7.1-.8,2.2-1.7,4.6-2.4,7.1Z"/>
        <path class="cls-6" d="M174.7,74c.2.9.8,2,.9,3-.8-.3-1.5-.8-2-1.4v1h0c-1.9-2.5-4.2-4.7-6.9-6.4,1.1.3,2.3.5,3.4.9-16.6-21.3-60.1,13.1-46.1,35.6.4-.3,1-1.1,1.5-1.4.9,2.3,2,4.5,3.1,6.7-1.9,1.2-.2.8-.3,2.3-1-.2-1.1-.6-1.9-.9,10.5,11,35.5,9.8,45.7-.8-.3-.2-1.4.2-1.8,0,1.8-1.3,3.1-3.4,4.6-4.7-.9.4-2.3,1-3.1,1.4,2.6-1.9,4.7-4.4,6.1-7.3-3.4,1.6-6.7,3.6-9.7,5.8.7-.6,1.3-1.5,1.9-2-1.5,1.1-3,2.1-4.6,3,1.1-1.3,2.1-2.5,3.3-3.7-1.8,1.9-3.9,3.5-6.2,4.8-4,.7-7.9,1.8-11.6,3.2,2.1.4,4.1.8,6.2.9-2.5,1.5-5.3,2.3-8.2,2.3.7-.1,1.4-.3,2.1-.6-1.4,0-2.8-.3-4-1,1.4-.2,2.8-.4,4.1-.8h-1.9c-1.6-1-3.1-2.4-4.8-3.1,3.5,1.2,7.9,1.7,11.6.3-7,1-12.1-2.2-17.7-6.5,1.2,1.4,1.9,2.6,3.1,3.9-1.2-.6-2.4-1.3-3.6-1.9-1.7-1.6-2.9-3.7-3.4-5.9l2.7,1.6c-6.1-8.9,14-21.6,22-20.2,8.5,1.4-7.8,9.4-11.1,12.2,1.6-.9,3.2-1.7,4.8-2.5-2,1.2-3.8,2.8-5.8,4,.6,0,1.6-.3,2.3-.5-3.2,2.1-6.4,3.9-9.4,6,2.8-1.4,6-2.8,9.2-4h-.1c2.3-.5,4.5-.6,6.8-1.4-4.2,1.6-7.6,4.9-11,7.5,2.3-1.6,4.9-2.8,7.6-3.6-1.1.6-2.2,1.2-3.2,1.9,1.4-.6,2.9-1.2,4.4-1.9.1-.2.3-.3.5-.5.5-.1,1-.3,1.5-.4l-1.9.9s-.1.2-.2.3c1.1-.4,2.2-.9,3.3-1.4,4.5-1,9-1.7,13.3-3.3h-1c0-.6-.1-1.2-.1-1.7,2.8-1,5.6-1.5,8.6-1.6-.2-1.3,0-3.4-.4-4.7.4-.2,1.7.2,2-.2.2-4.2-.8-10-4.7-13.2h.1Z"/>
        <path class="cls-5" d="M112.9,74.6c-3.6-2.9-8.6-3.5-13.4-2.8h.2c5.2-2.1,8.7-3.2,12.5-7.4,5.9-6.6,16.5-14.5,17.7-23.7.8-5.8,2.5-19.6-.6-24.2-3.8-5.6-14.8-9.2-21.1-7.6.3.2.6.6.8.7-.7.2-1.4.7-1.9,1.2,1.3.4,2.3,1.1,3.7,1.3-4.3-.2-10.2.8-14.4,1.6.5-.2,1.1-.5,1.6-.6-2.2.3-4.3,1.1-6.5,1.4,2-1.2,4.2-2.2,6.6-2.8-2.5.9-5.2,1.2-7.6,2.1,2.3-1.6,5-2.6,7.7-3.2-4.6-.1-12.1,2.8-17.5,5.4-1.4-4.4-3.4-8.8-3.4-13.3-2.7-.4-6.5-2.8-9.1-2.7-2.9.2-7.5,3.5-11.1,4.1,3,2.9,2,7.9.5,11.7-.9.1-1.8,0-2.7.2.2,3.8-.4,7.6-3,10.5,0-1.2.2-2.3.5-3.5-1,2.2-2.1,4.3-3.3,6.4h0c.3-1.4.3-3.5.5-4.5-1.7,1.5-3,3.5-3.6,5.7-3.8,1.7-7.7,3.9-11.4,4.7l.6-.4h.1c1.9-1.5,3.9-2.9,6-4,.9-.7,1.9-1.4,3-1.9-6.8,2.5-13.5,6.9-20.3,9.3,1.1-.4,2.4-.7,3.5-1.1-3.4,1.5-7.1,3-10.3,4.8.8-.7,1.6-1.4,2.5-2-6,3.9-12.5,7.5-17.9,11.9,8.8-3.5,17.5-9.5,26.9-11,.2.1-.1.6-.2.6,2.3-.7,4.6-1.2,6.9-1.7-5.1,1.9-11,4.4-15.9,6.6-4.4,2-7.8,5.5-12.2,7.3h.8c-1.6,1.1-3.1,2.4-4.6,3.7,4.1-2.9,11.4-7.1,16.6-7.1-.1.2-.8.8-.9,1,5.9-1.9,11.5-5.8,17.6-7.5-.5,0-1,.2-1.5.3,2.6-1.5,5.5-3.1,8.6-4.7-.4,2.6-1.1,5.1-2.1,7.5-4.4,9.4-4.6,19.3-8.4,28.8,2.2-3.8,3.2-8.1,5.2-12-.9,2.1-1.6,4.2-2.3,6.4,3.3-5.2,6.5-10.6,9.9-15.6-4.5,7.5-5.5,15.7-7.7,23.3-1.3,2.7-2.2,5.6-3.6,8.2,1.3-3.6,2.2-7.5,3.6-11.1-.2.3-.6.7-.8.9.4-1.1.7-2.3,1-3.5-2.8,6-4.2,12.3-6.3,18.3-.5.7-1.1,1.4-1.7,2,.1-1.5.5-2.9.9-4.4h0c.2-2.1.6-4.2,1.2-6.2-1.7,5.9-4,11.9-6.2,17.7-.1-.2-.2-.5-.1-.7-1.9,3.2-4,6.4-6.1,9.5.9-.9,1.9-1.6,2.9-2.3-.5,2.5-1.2,4.9-2.1,7.3,2-4.1,3.4-8.5,5.8-12.5-4.5,9.8-5.5,21.6-8.2,32.1-.2,3.1-1.2,6.2-2.9,8.8v-2c-1.1,7.6-5.4,15.1-8.3,22.1,4.7-5.3,6.7-12.9,10.8-18.9,0,1.5,0,3-.4,4.5,1.9-4.3,4.2-8.5,6.7-12.4-.6,7-2.7,11.4-4.1,19.8,0-3.5.6-7,1.6-10.4-3.2,5.7-8,15.8-7.7,23-.9,1.4-1.8,2.9-2.6,4.4,0-2.2.3-4.4,1-6.4-.7,1.4-1.5,2.9-2.3,4.3v-3.2c-1.5,3.8-3.3,7.5-5.4,11.1-.2,0-.4,0-.4-.3h0c-.3,1-.7,1.8-1,2.8,0-.7.5-3.2.5-3-1-1.2.6-6.2,1.8-9-2.4,4.2-3.8,9-5.3,13.5.4-.2.8-1.1,1.1-1.3-.2,3.3-1.2,6.6-1.9,10,.9-3.7,2.8-7.1,5.4-9.9-.4,1.2-.7,2.9-1.1,4.2,2.1-3.8,3.8-7.7,5.2-11.8-.2,8-4.4,17.3-6.9,25.1,3.1-8.2,5.6-16.9,10.3-24.7.1.9.2,1.8,0,2.6.5-1.1,1-2.2,1.7-3.2.1.3-.1,2.2.2,2.3.5-.6.8-2,1.7-2.2.1.2-.6.9-.6,1.2,6.1-7.1,8.7-18,10.9-28.2,1.2-3.7,2.6-7.3,4.3-10.7-.8,4-.7,8.3-1.6,12.2-2.1,8.8-6.2,18.9-9.3,27.9,5.4-11.2,11.8-25,15.2-36.4.7-2.2,1.4-4.7,2.2-7.4,1.4-.3,2.9-.4,4.3-.2,1.3-.7,2.7-1.1,4-1.7-1.2,1-2.5,1.8-3.8,2.6,4.5-1.5,8.7-5.2,13.5-6.4h-.8c1.5-.5,3.1-1.1,4.5-1.8-1.3.5-2.5.9-3.8,1.3.2-.2.4-.4.6-.6-2.6.6-4.8,2.3-7.2,3,4.4-4.2,12.3-9.1,18-10.6-.7,1.2-1.5,2.3-2.4,3.3,2.1-2.2,4.6-3.9,7.3-5-.6.5-.9,1.1-1.5,1.7.3-.1.6-.2.8-.3.2.2.4.4.7.6-2.6,2.9-6.2,5.2-9.1,7.9,3.2-2.1,6.6-3.8,10.1-5.1-6,4.5-12.4,8.4-19.2,11.5,2.7-1,5.6-1.7,7.2-1,2.9-1.6,6-2.7,9.3-3.3,2.4-1.4,4.9-2.6,7.5-3.7-1,.2-1.9.4-2.9.6,6.7-1.7,12.7-6.4,18.6-9.9-.4.5-.8,1-1.3,1.6,1.6-1,3.3-2.1,5-2.9-.5.6-1.1,1.3-1.7,1.9,3.2-2.1,5.8-3.5,8.4-6.4,6.6-7.6,9.7-13.8,12-23.5,1.1-5,2.2-6.3-2.7-10.2l-.1-.3ZM23.1,106.1c-.1-.1-.4,0,.1-.6,0,.2,0,.4-.1.6ZM97.1,32.3c-.2-.5-.4-.9-.7-1.3,3.2,2.1,4.3,4.5,5.1,8.7.5-1.2.9-2.4,1-3.7.2,1,.5,2.3.6,3.2.6-3.1-.9-5.4-1.9-8,3.6,2.9,4.3,10.9,2.8,15-.2,0,0-1.2,0-1.2-.2.5-.4,1-.7,1.5-.1-1.7-.4-3.3-.7-5,0,3.3-1.4,6.3-3.1,9.1.6-3.3.6-6.7-.1-9.9.5,4.9-1.2,10.7-4.6,13.4,1.5-2.3,2.2-5,2-7.7-2.7,9.7-11.8,11.8-18.7,17,.6,0,1-.3,1.6-.3-.8.5-1.8,1.2-2.6,1.7,2.5-.3,4.4-2.1,6.9-2.8-5.5,2.6-10.6,6.7-16.1,8.9,1.7-1.3,3.4-2.5,5.2-3.7-1.8.7-3.6,1.8-5.5,2.4.8-.5,1.6-1.1,2.3-1.7-3.1,1.1-6.1,2.6-9,4.3,2.7-7.8,6.3-15.3,10.7-22.3,1.8-2.8,7.4-6.1,8.7-8.8,1.5-3.2,0-4.6.5-8,.2-1.5.6-3.1.8-4.6,5.9-.5,12.3.8,15.7,4.1h0l-.2-.3ZM86.4,16.1c-1.8.4-3.6,1-5.3,1.8,0-.3-.2-.6-.3-.9,1.8-.3,3.7-.6,5.5-.9h.1ZM69.3,111.6c.3-.6.8-1.1,1.1-1.6-5.9,2.6-12,7-18,10-4.3,2.1-9.1,4-13.6,6.3v-.3c1-1,2.2-1.8,3.6-2.1-1.4-12.4,8.3-22.2,11.1-34.6.3,5.7-4.2,11.8-4.2,17.3,1.4-5.8,4.8-13.2,6.6-19.5,3.3-1,6.8-2.1,10-3-1.4.2-2.8.3-4.2.3,3.8-1.5,7.5-2.8,11.4-2.7-.4.1-2.3,1-3.3,1.4,4,.1,8.1-.3,12-1.2,18.5,4.2-1.5,27.7-12.6,29.8l.1-.1Z"/>
        <path class="cls-10" d="M29.3,87.6v.9c.3-.2.3-.6,0-.9Z"/>
        <path class="cls-11" d="M51.4,18.3c.8-1.7,1.5-3.4,2-5.1-.9,1.6-1.6,3.3-2,5.1Z"/>
        <path class="cls-12" d="M40.3,26.3l-.8.4-1.4,1.1s1.5-1.1,2.2-1.5Z"/>
        <path class="cls-13" d="M33.2,30.9c1-.6,2-1.2,3-1.9-1,.6-2,1.2-3,1.9Z"/>
        <path class="cls-14" d="M101.4,36.9c-.2-1.8-.7-3.6-1.6-5.2.7,1.7,1.3,3.4,1.6,5.2Z"/>
        <rect class="cls-9" x="2.6" y="122.9" width="430.9" height="1.5"/>
        <path class="cls-9" d="M288.4,95.3c-3.8,13.4,2.9,24.3,15.1,24.3s25.2-10.9,29-24.3-2.9-24.3-15.1-24.3-25.2,10.9-29,24.3ZM296.4,95.3c2.6-9,11-16.3,18.7-16.3s12,7.3,9.4,16.3-11,16.3-18.7,16.3-12-7.3-9.4-16.3h0Z"/>
        <path class="cls-9" d="M388.5,70.8h-12c.4,1.8.6,3.6.4,5.5l-6.7,23.2c-2.4,8.4-7,12-15.2,12s-10.7-3.6-8.3-12l6.7-23.2c1-1.9,2.2-3.8,3.6-5.5h-12c.4,1.8.6,3.6.4,5.5l-6.6,23.2c-3.7,12.9,1.3,20,14,20s21.8-7.1,25.5-20l6.7-23.2c1-1.9,2.1-3.8,3.5-5.5Z"/>
        <path class="cls-9" d="M414.8,71.2h-20.3c.4,1.8.6,3.6.4,5.5l-10.8,37.4c-1,1.9-2.2,3.8-3.5,5.5h20.3c10.4,0,24.4-6.3,29.5-24.2s-5.3-24.2-15.7-24.2h.1ZM403.2,111.6h-10.3c1.1-4,7.8-27,9.3-32.4h10.3c4.4,0,14.2,1.6,10,16.2s-15,16.2-19.4,16.2h.1Z"/>
        <path class="cls-9" d="M233.1,71h-24.6c.4,1.8.6,3.6.4,5.4l-10.8,37.6c-1,1.9-2.2,3.8-3.6,5.5h12c-.4-1.8-.6-3.6-.4-5.5l3.5-12h14.6c7.2,0,15.1-7,17.5-15.5s-1.4-15.6-8.7-15.6l.1.1ZM226.5,94h-14.6c2.1-7.4,3.6-12.6,4.3-15.1h14.6c2.8,0,4.1,3.4,2.9,7.5s-4.5,7.6-7.3,7.6h.1Z"/>
        <path class="cls-9" d="M273.1,100.5c5.6-2.9,9.7-8,11.5-14,2.4-8.5-1.4-15.5-8.6-15.5h-24.6c.4,1.8.6,3.6.4,5.4l-10.8,37.6c-1,1.9-2.2,3.8-3.6,5.5h12c-.4-1.8-.6-3.6-.4-5.5,1-3.3,2.2-7.8,3.4-12h12.2l3.4,17.5h8.8l-3.6-19h-.1ZM269.3,94.1h-14.6c2.1-7.4,3.6-12.6,4.3-15.1h14.6c2.8,0,4.1,3.4,2.9,7.5s-4.5,7.5-7.2,7.5v.1Z"/>
      </g>
    </g>
  </g>
</svg>