<svg id="レイヤー_1" data-name="レイヤー 1" xmlns="http://www.w3.org/2000/svg" viewBox="0 0 120.7 102.09"><defs><style>.cls-1{fill:#fff;}.cls-2{fill:#3f444a;}</style></defs><rect class="cls-1" width="120.7" height="102.09"/><path class="cls-2" d="M40.09,45.28a23,23,0,0,0,0,2.7,10.2,10.2,0,0,0,.72,3.58,4.16,4.16,0,0,0,3.66,2.2A4,4,0,0,0,47.87,52a7.26,7.26,0,0,0,.79-4L48.6,22.94h7.15V48a14.57,14.57,0,0,1-1.55,7.27q-2.62,4.55-9.48,4.54t-9.19-3.67q-2.34-3.68-2.34-10v-.83Z"/><path class="cls-2" d="M70.3,38.14h-7V31.72h7ZM63,41.67h7.51V59.41H63Z"/><path class="cls-2" d="M71.42,79.12V73a6.51,6.51,0,0,0,5.48-2.72,6.87,6.87,0,0,0,1.31-3.71L78,41.67h7s.81,26.54-.12,29.57a10.67,10.67,0,0,1-3.57,5.54C78.37,79.14,75.75,79.23,71.42,79.12Zm13.74-41h-7V31.72h7Z"/></svg>