<svg width="500" height="137" viewBox="0 0 500 137" fill="none" xmlns="http://www.w3.org/2000/svg">
<path fill-rule="evenodd" clip-rule="evenodd" d="M90.0474 73.7797L93.8228 56.2429L77.7116 60.352L80.5666 63.46L62.8951 82.6934C61.1559 84.6608 59.0185 86.2363 56.6245 87.3153C54.2304 88.3943 51.6344 88.9523 49.0084 88.9523C46.3825 88.9523 43.7865 88.3943 41.3924 87.3153C38.9984 86.2363 36.8609 84.6608 35.1217 82.6934C31.4177 78.5289 29.3714 73.1495 29.3714 67.5761C29.3714 62.0028 31.4177 56.6233 35.1217 52.4589C36.8718 50.5047 39.0114 48.9383 41.403 47.8603C43.7945 46.7824 46.3852 46.2167 49.0084 46.1997C53.4734 46.2164 57.7831 47.8399 61.1492 50.7733L66.2272 45.2473C66.7575 44.6684 67.3073 44.1139 67.8721 43.5859C65.2135 41.0396 62.0675 39.0572 58.6232 37.7578C55.1789 36.4583 51.5074 35.8687 47.8294 36.0244C44.1515 36.1801 40.543 37.0779 37.2208 38.6638C33.8986 40.2496 30.9314 42.4909 28.4976 45.2528C23.024 51.4026 20 59.3487 20 67.5816C20 75.8145 23.024 83.7606 28.4976 89.9105C31.0659 92.8174 34.2228 95.1452 37.759 96.7396C41.2951 98.334 45.1298 99.1585 49.0088 99.1585C52.8878 99.1585 56.7225 98.334 60.2587 96.7396C63.7949 95.1452 66.9518 92.8174 69.5201 89.9105L87.19 70.6716L90.0474 73.7797Z" fill="#7159B6"/>
<path fill-rule="evenodd" clip-rule="evenodd" d="M45.6575 61.3832L41.8821 78.92L57.9933 74.8086L55.1367 71.7005L72.8105 52.4632C74.5497 50.4958 76.6872 48.9204 79.0812 47.8413C81.4753 46.7623 84.0713 46.2043 86.6972 46.2043C89.3232 46.2043 91.9192 46.7623 94.3133 47.8413C96.7073 48.9204 98.8447 50.4958 100.584 52.4632C104.288 56.6277 106.334 62.0071 106.334 67.5805C106.334 73.1539 104.288 78.5333 100.584 82.6977C98.8337 84.6519 96.6941 86.2184 94.3026 87.2967C91.9111 88.3751 89.3206 88.9414 86.6972 88.9592C82.2311 88.9427 77.9201 87.3192 74.5525 84.3857L69.4777 89.914C68.9458 90.4905 68.3968 91.0451 67.8328 91.5715C70.4908 94.1186 73.6364 96.1019 77.0805 97.4023C80.5246 98.7026 84.1961 99.2932 87.8742 99.1384C91.5524 98.9835 95.1613 98.0866 98.4839 96.5014C101.807 94.9162 104.774 92.6755 107.209 89.914C112.682 83.7642 115.706 75.8181 115.706 67.5852C115.706 59.3523 112.682 51.4062 107.209 45.2563C104.641 42.3487 101.485 40.0203 97.9493 38.4253C94.4135 36.8303 90.579 36.0053 86.7001 36.0049C82.8212 36.0045 78.9865 36.8288 75.4504 38.4231C71.9143 40.0174 68.7575 42.3453 66.1895 45.2524L48.5172 64.4897L45.6575 61.3832Z" fill="#3D7AF2"/>
<path d="M163.303 89.5941L153.612 75.073C159.329 72.737 162.58 67.8125 162.58 61.1201C162.58 51.3341 155.718 45.3994 144.643 45.3994H127.309V89.5941H135.133V76.7145H144.643C145.185 76.7249 145.727 76.7038 146.266 76.6514L154.876 89.5941H163.303ZM154.696 61.1201C154.696 66.676 151.145 69.9591 144.283 69.9591H135.133V52.3443H144.282C151.145 52.3443 154.696 55.5642 154.696 61.1201ZM198.694 72.9264C198.694 62.3828 191.833 55.5011 182.443 55.5011C172.872 55.5011 165.831 62.6985 165.831 72.737C165.831 82.7755 172.813 90.0361 183.587 90.0361C189.125 90.0361 193.639 88.142 196.528 84.5433L192.495 79.6819C191.393 80.8898 190.041 81.843 188.534 82.4754C187.027 83.1077 185.4 83.404 183.767 83.3437C178.17 83.3437 174.257 80.187 173.354 75.2624H198.576C198.635 74.5048 198.694 73.5578 198.694 72.9264ZM182.443 61.8146C184.719 61.7586 186.93 62.5784 188.62 64.1052C190.311 65.6321 191.352 67.7497 191.53 70.0222H173.289C174.016 65.0976 177.568 61.8146 182.443 61.8146ZM218.553 90.0361C224.813 90.0361 229.813 87.195 232.277 82.1442L226.503 78.6086C225.716 80.0405 224.556 81.2315 223.146 82.0544C221.736 82.8772 220.129 83.3011 218.497 83.2806C212.959 83.2806 208.746 79.3031 208.746 72.737C208.746 66.2341 212.959 62.1934 218.497 62.1934C220.129 62.1729 221.736 62.5968 223.146 63.4197C224.556 64.2425 225.716 65.4335 226.503 66.8654L232.281 63.3253C229.813 58.2159 224.817 55.5011 218.553 55.5011C208.381 55.5011 201.158 62.6354 201.158 72.737C201.158 82.8387 208.385 90.0361 218.553 90.0361ZM260.265 55.8754V72.9219C260.265 79.6774 256.714 83.0867 251.482 83.0867C246.727 83.0867 243.959 80.1825 243.959 74.0583V55.8844H236.434V75.1407C236.434 85.3054 242.031 90.0406 250.278 90.0406C252.25 90.0987 254.21 89.7019 256.005 88.8809C257.8 88.0598 259.382 86.8365 260.63 85.3054V89.5941H267.792V55.8844L260.265 55.8754ZM285.487 90.0361C294.515 90.0361 300.052 85.9323 300.052 79.6188C300.052 66.428 280.189 72.4845 280.189 65.6658C280.189 63.4561 282.355 61.8777 286.93 61.8777C290.178 61.8199 293.374 62.6963 296.14 64.4031L299.029 58.4053C296.14 56.5744 291.26 55.5011 286.991 55.5011C278.321 55.5011 272.847 59.6725 272.847 66.0447C272.847 79.4925 292.71 73.4315 292.71 79.8713C292.71 82.2073 290.724 83.5918 285.969 83.5918C281.995 83.5643 278.112 82.4036 274.773 80.2456L271.884 86.2435C274.775 88.3946 280.132 90.0361 285.489 90.0361H285.487ZM321.661 82.1442C320.46 83.0832 318.97 83.5743 317.448 83.5331C314.558 83.5331 312.993 81.7654 312.993 78.4823V62.446H321.6V56.1324H312.993V48.4299H305.469V56.1324H300.177V62.446H305.469V78.6717C305.469 86.1217 309.503 90.0361 316.544 90.0361C319.14 90.1205 321.687 89.3191 323.768 87.7632L321.661 82.1442ZM341.222 90.0361C351.214 90.0361 358.377 82.8387 358.377 72.737C358.377 62.6354 351.217 55.5011 341.225 55.5011C331.353 55.5011 324.13 62.6354 324.13 72.737C324.13 82.8387 331.353 90.0361 341.225 90.0361H341.222ZM341.222 83.2806C335.805 83.2806 331.712 79.1768 331.712 72.737C331.712 66.2972 335.805 62.1934 341.222 62.1934C346.7 62.1934 350.793 66.2972 350.793 72.737C350.793 79.1768 346.703 83.2806 341.225 83.2806H341.222ZM404.061 55.5011C401.755 55.428 399.464 55.8985 397.373 56.8745C395.282 57.8505 393.45 59.3048 392.023 61.1201C389.796 57.332 385.883 55.5011 381.189 55.5011C379.193 55.42 377.205 55.7991 375.379 56.6091C373.553 57.4192 371.937 58.6385 370.655 60.1731V55.8844H363.493V89.5941H371.017V72.4845C371.017 65.7921 374.388 62.3828 379.383 62.3828C383.958 62.3828 386.606 65.287 386.606 71.2894V89.5941H394.13V72.4845C394.13 65.7921 397.561 62.3828 402.496 62.3828C407.07 62.3828 409.719 65.287 409.719 71.2894V89.5941H417.243V70.2747C417.245 60.1099 411.828 55.5011 404.063 55.5011H404.061ZM455.282 72.9264C455.282 62.3828 448.421 55.5011 439.031 55.5011C429.46 55.5011 422.419 62.6985 422.419 72.737C422.419 82.7755 429.404 90.0361 440.178 90.0361C445.715 90.0361 450.229 88.142 453.118 84.5433L449.085 79.6819C447.983 80.8898 446.631 81.843 445.124 82.4754C443.617 83.1077 441.991 83.404 440.358 83.3437C434.76 83.3437 430.848 80.187 429.945 75.2624H455.166C455.225 74.5048 455.286 73.5578 455.286 72.9264H455.282ZM439.035 61.8146C441.311 61.758 443.522 62.5775 445.213 64.1044C446.904 65.6313 447.946 67.7493 448.124 70.0222H429.883C430.608 65.0976 434.159 61.8146 439.035 61.8146ZM467.565 60.7999V55.8844H460.401V89.5941H467.925V73.2466C467.925 66.3694 471.536 62.8293 477.255 62.8293C477.841 62.8361 478.426 62.8996 479 63.0187V55.5011C473.644 55.5011 469.731 57.2689 467.565 60.8044V60.7999Z" fill="#222222"/>
</svg>
