<?xml version="1.0" encoding="UTF-8"?>
<svg id="_レイヤー_1のコピー_2" data-name="レイヤー 1のコピー 2" xmlns="http://www.w3.org/2000/svg" version="1.1" viewBox="0 0 1417.32 283.46">
  <defs>
    <style>
      .cls-1 {
        fill: #76a32d;
        stroke-width: 0px;
      }
    </style>
  </defs>
  <g>
    <path class="cls-1" d="M147.9,57.77c7.05,18.09,10.96,37.75,10.96,58.33,0,48.1-21.15,91.24-54.63,120.71.39,0,.77.03,1.15.03,52.24,0,94.59-42.35,94.59-94.59,0-36.94-21.19-68.91-52.07-84.48Z"/>
    <path class="cls-1" d="M149.64,89.29c0-11.09-1.17-21.91-3.37-32.35-12.38-5.94-26.24-9.27-40.89-9.27-17.49,0-33.85,4.76-47.9,13.04,13.5,5.03,30.84,13.99,43.46,29.46,23.74,29.09,21.7,70.05,21.7,70.05,0,0-40.54-6.2-64.28-35.29-12.82-15.7-18.09-34.82-20.25-49.13-16.88,17.08-27.31,40.55-27.31,66.47,0,37.95,22.36,70.67,54.62,85.73,50.03-26.07,84.22-78.37,84.22-138.69Z"/>
    <path class="cls-1" d="M57.48,60.7c-11.89-4.43-20.82-5.83-20.82-5.83,0,0-.4,8.72,1.44,20.92,5.76-5.83,12.27-10.9,19.38-15.08Z"/>
  </g>
  <g>
    <path class="cls-1" d="M266.62,152.85l-60.41-105.11h32.12l42.31,73.95,42.43-73.95h32.12l-60.65,105.11v79.94h-27.93v-79.94Z"/>
    <path class="cls-1" d="M398.32,47.74v111.46c0,15.9,2.6,27.53,7.79,34.88,7.75,10.63,18.66,15.94,32.72,15.94s25.09-5.31,32.84-15.94c5.19-7.11,7.79-18.74,7.79-34.88V47.74h27.93v119.13c0,19.5-6.07,35.56-18.22,48.18-13.66,14.06-30.44,21.09-50.34,21.09s-36.64-7.03-50.22-21.09c-12.15-12.62-18.22-28.68-18.22-48.18V47.74h27.93Z"/>
    <path class="cls-1" d="M577.59,206.55h88.81v26.25h-134.71l90.85-158.81h-75.99v-26.25h121.89l-90.85,158.81Z"/>
    <path class="cls-1" d="M720.79,47.74v111.46c0,15.9,2.6,27.53,7.79,34.88,7.75,10.63,18.66,15.94,32.72,15.94s25.09-5.31,32.84-15.94c5.19-7.11,7.79-18.74,7.79-34.88V47.74h27.93v119.13c0,19.5-6.07,35.56-18.22,48.18-13.66,14.06-30.44,21.09-50.34,21.09s-36.64-7.03-50.22-21.09c-12.15-12.62-18.22-28.68-18.22-48.18V47.74h27.93Z"/>
    <path class="cls-1" d="M930.75,153.93l57.29,78.86h-34.16l-52.85-75.75h-5.03v75.75h-27.93V47.74h32.72c24.45,0,42.11,4.6,52.98,13.78,11.98,10.23,17.98,23.73,17.98,40.51,0,13.11-3.76,24.37-11.27,33.8-7.51,9.43-17.42,15.46-29.72,18.1ZM896,132.72h8.87c26.45,0,39.67-10.11,39.67-30.32,0-18.94-12.87-28.41-38.59-28.41h-9.95v58.73Z"/>
    <path class="cls-1" d="M1037.64,47.74v185.05h-27.93V47.74h27.93Z"/>
    <path class="cls-1" d="M1103.89,120.13h79.82V47.74h27.93v185.05h-27.93v-86.41h-79.82v86.41h-27.93V47.74h27.93v72.39Z"/>
    <path class="cls-1" d="M1358.56,190.1h-79.22l-20.61,42.7h-30.08l91.57-186.84,88.33,186.84h-30.56l-19.42-42.7ZM1347.17,165.16l-27.45-59.78-28.76,59.78h56.21Z"/>
  </g>
</svg>